<svg width="15" height="15" viewBox="0 0 15 15" fill="none" xmlns="http://www.w3.org/2000/svg">
<g clip-path="url(#clip0_12_8684)">
<path d="M9.10725 0.535706H5.89296C5.6088 0.535706 5.33628 0.648588 5.13535 0.84952C4.93442 1.05045 4.82153 1.32297 4.82153 1.60713V2.14285C4.82153 2.42701 4.93442 2.69953 5.13535 2.90046C5.33628 3.10139 5.6088 3.21428 5.89296 3.21428H9.10725C9.39141 3.21428 9.66393 3.10139 9.86486 2.90046C10.0658 2.69953 10.1787 2.42701 10.1787 2.14285V1.60713C10.1787 1.32297 10.0658 1.05045 9.86486 0.84952C9.66393 0.648588 9.39141 0.535706 9.10725 0.535706Z" stroke="#BBBBBB" stroke-width="1.71429" stroke-linecap="round" stroke-linejoin="round"/>
<path d="M10.4464 1.60712H12.0536C12.3377 1.60712 12.6103 1.72 12.8112 1.92093C13.0121 2.12186 13.125 2.39438 13.125 2.67855V13.3928C13.125 13.677 13.0121 13.9495 12.8112 14.1504C12.6103 14.3514 12.3377 14.4643 12.0536 14.4643H2.94643C2.66227 14.4643 2.38975 14.3514 2.18881 14.1504C1.98788 13.9495 1.875 13.677 1.875 13.3928V2.67855C1.875 2.39438 1.98788 2.12186 2.18881 1.92093C2.38975 1.72 2.66227 1.60712 2.94643 1.60712H4.55357" stroke="#BBBBBB" stroke-width="1.71429" stroke-linecap="round" stroke-linejoin="round"/>
<path d="M5.35718 9.64287L6.96432 10.7143L10.1786 6.42859" stroke="#BBBBBB" stroke-width="1.71429" stroke-linecap="round" stroke-linejoin="round"/>
</g>
<defs>
<clipPath id="clip0_12_8684">
<rect width="15" height="15" fill="white"/>
</clipPath>
</defs>
</svg>
