<svg width="15" height="15" viewBox="0 0 15 15" fill="none" xmlns="http://www.w3.org/2000/svg">
<g clip-path="url(#clip0_12_8689)">
<path d="M9.10697 3.75V2.67858C9.10697 2.39442 8.99409 2.12189 8.79315 1.92096C8.59222 1.72003 8.3197 1.60715 8.03554 1.60715H6.96411" stroke="#BBBBBB" stroke-width="1.71429" stroke-linecap="round" stroke-linejoin="round"/>
<path d="M4.28564 11.25H1.60707C1.32291 11.25 1.05039 11.1371 0.849459 10.9362C0.648527 10.7353 0.535645 10.4627 0.535645 10.1786V2.67858C0.535645 2.39442 0.648527 2.12189 0.849459 1.92096C1.05039 1.72003 1.32291 1.60715 1.60707 1.60715H2.6785" stroke="#BBBBBB" stroke-width="1.71429" stroke-linecap="round" stroke-linejoin="round"/>
<path d="M13.3927 5.89285H8.03554C7.75138 5.89285 7.47886 6.00574 7.27793 6.20667C7.07699 6.4076 6.96411 6.68012 6.96411 6.96428V13.3929C6.96411 13.677 7.07699 13.9495 7.27793 14.1505C7.47886 14.3514 7.75138 14.4643 8.03554 14.4643H13.3927C13.6768 14.4643 13.9494 14.3514 14.1503 14.1505C14.3512 13.9495 14.4641 13.677 14.4641 13.3929V6.96428C14.4641 6.68012 14.3512 6.4076 14.1503 6.20667C13.9494 6.00574 13.6768 5.89285 13.3927 5.89285Z" stroke="#BBBBBB" stroke-width="1.71429" stroke-linecap="round" stroke-linejoin="round"/>
<path d="M7.23207 0.535706H2.41064L2.84993 2.27142C2.87669 2.38759 2.94219 2.4912 3.03566 2.56519C3.12913 2.63919 3.245 2.67917 3.36422 2.67856H6.2785C6.39771 2.67917 6.51359 2.63919 6.60705 2.56519C6.70052 2.4912 6.76603 2.38759 6.79279 2.27142L7.23207 0.535706Z" stroke="#BBBBBB" stroke-width="1.71429" stroke-linecap="round" stroke-linejoin="round"/>
<path d="M9.10718 9.10715H12.3215" stroke="#BBBBBB" stroke-width="1.71429" stroke-linecap="round" stroke-linejoin="round"/>
<path d="M9.10718 11.25H12.3215" stroke="#BBBBBB" stroke-width="1.71429" stroke-linecap="round" stroke-linejoin="round"/>
</g>
<defs>
<clipPath id="clip0_12_8689">
<rect width="15" height="15" fill="white"/>
</clipPath>
</defs>
</svg>
