<svg width="15" height="15" viewBox="0 0 15 15" fill="none" xmlns="http://www.w3.org/2000/svg">
<g clip-path="url(#clip0_12_8671)">
<path d="M9.63843 6.10503L12.0513 3.69217L14.4641 6.10503" stroke="#BBBBBB" stroke-width="1.71429" stroke-linecap="round" stroke-linejoin="round"/>
<path d="M9.63843 9.96643L12.0513 12.3793L14.4641 9.96643" stroke="#BBBBBB" stroke-width="1.71429" stroke-linecap="round" stroke-linejoin="round"/>
<path d="M4.07125 4.98216C4.34201 4.99098 4.61178 4.94527 4.86452 4.84774C5.11725 4.75022 5.3478 4.60287 5.54245 4.41445C5.7371 4.22604 5.89188 4.00041 5.99758 3.75098C6.10329 3.50156 6.15776 3.23342 6.15776 2.96252C6.15776 2.69162 6.10329 2.42348 5.99758 2.17405C5.89188 1.92462 5.7371 1.69899 5.54245 1.51058C5.3478 1.32217 5.11725 1.17482 4.86452 1.07729C4.61178 0.979766 4.34201 0.934054 4.07125 0.942874C3.53532 0.942874 3.02135 1.15577 2.64239 1.53473C2.26343 1.91369 2.05054 2.42766 2.05054 2.96359C2.05054 3.49952 2.26343 4.01349 2.64239 4.39245C3.02135 4.77141 3.53532 4.9843 4.07125 4.9843V4.98216Z" stroke="#BBBBBB" stroke-width="1.71429" stroke-linecap="round" stroke-linejoin="round"/>
<path d="M7.60814 8.52001C7.60814 7.58214 7.23558 6.68268 6.5724 6.01951C5.90923 5.35633 5.00977 4.98376 4.07189 4.98376C3.13402 4.98376 2.23456 5.35633 1.57139 6.01951C0.908213 6.68268 0.535645 7.58214 0.535645 8.52001V10.035H2.05172L2.55636 14.0764H5.5885L6.09207 10.035H7.60814V8.52001Z" stroke="#BBBBBB" stroke-width="1.71429" stroke-linecap="round" stroke-linejoin="round"/>
</g>
<defs>
<clipPath id="clip0_12_8671">
<rect width="15" height="15" fill="white"/>
</clipPath>
</defs>
</svg>
