<svg width="15" height="15" viewBox="0 0 15 15" fill="none" xmlns="http://www.w3.org/2000/svg">
<g clip-path="url(#clip0_12_8657)">
<path d="M5.89279 1.07141H0.535645V6.42855H5.89279V1.07141Z" stroke="#BBBBBB" stroke-width="1.71429" stroke-linecap="round" stroke-linejoin="round"/>
<path d="M14.1963 14.4643H8.83911" stroke="#BBBBBB" stroke-width="1.71429" stroke-linecap="round" stroke-linejoin="round"/>
<path d="M8.83911 9.10715H14.1963" stroke="#BBBBBB" stroke-width="1.71429" stroke-linecap="round" stroke-linejoin="round"/>
<path d="M8.83911 11.7857H14.1963" stroke="#BBBBBB" stroke-width="1.71429" stroke-linecap="round" stroke-linejoin="round"/>
<path d="M14.4641 6.42856H8.57129L11.5177 0.535706L14.4641 6.42856Z" stroke="#BBBBBB" stroke-width="1.71429" stroke-linecap="round" stroke-linejoin="round"/>
<path d="M3.21422 14.4643C3.92462 14.4643 4.60592 14.1821 5.10825 13.6798C5.61058 13.1774 5.89279 12.4961 5.89279 11.7857C5.89279 11.0753 5.61058 10.394 5.10825 9.89168C4.60592 9.38935 3.92462 9.10715 3.21422 9.10715C2.50381 9.10715 1.82251 9.38935 1.32018 9.89168C0.81785 10.394 0.535645 11.0753 0.535645 11.7857C0.535645 12.4961 0.81785 13.1774 1.32018 13.6798C1.82251 14.1821 2.50381 14.4643 3.21422 14.4643Z" stroke="#BBBBBB" stroke-width="1.71429" stroke-linecap="round" stroke-linejoin="round"/>
</g>
<defs>
<clipPath id="clip0_12_8657">
<rect width="15" height="15" fill="white"/>
</clipPath>
</defs>
</svg>
