<svg width="15" height="15" viewBox="0 0 15 15" fill="none" xmlns="http://www.w3.org/2000/svg">
<g id="User Multiple Group" clip-path="url(#clip0_421_6241)">
<g id="user-multiple-group--close-geometric-human-multiple-person-up-user">
<path id="Vector" d="M5.35704 6.96408C6.06744 6.96408 6.74874 6.68187 7.25107 6.17954C7.7534 5.67721 8.03561 4.99591 8.03561 4.2855C8.03561 3.5751 7.7534 2.8938 7.25107 2.39147C6.74874 1.88914 6.06744 1.60693 5.35704 1.60693C4.64664 1.60693 3.96533 1.88914 3.463 2.39147C2.96067 2.8938 2.67847 3.5751 2.67847 4.2855C2.67847 4.99591 2.96067 5.67721 3.463 6.17954C3.96533 6.68187 4.64664 6.96408 5.35704 6.96408Z" stroke="#BBBBBB" stroke-width="1.71429" stroke-linecap="round" stroke-linejoin="round"/>
<path id="Vector_2" d="M0.535645 14.4642H10.1785V13.8835C10.1716 13.2357 10.0346 12.596 9.77555 12.0022C9.51649 11.4085 9.14071 10.873 8.67053 10.4274C8.20036 9.98178 7.64539 9.63527 7.03862 9.40845C6.43185 9.18163 5.78568 9.07912 5.1385 9.10702C3.90666 9.16547 2.74379 9.69269 1.88805 10.5807C1.03231 11.4687 0.548478 12.6503 0.535645 13.8835V14.4642Z" stroke="#BBBBBB" stroke-width="1.71429" stroke-linecap="round" stroke-linejoin="round"/>
<path id="Vector_3" d="M9.64282 6.96408C10.3532 6.96408 11.0345 6.68187 11.5369 6.17954C12.0392 5.67721 12.3214 4.99591 12.3214 4.2855C12.3214 3.5751 12.0392 2.8938 11.5369 2.39147C11.0345 1.88914 10.3532 1.60693 9.64282 1.60693" stroke="#BBBBBB" stroke-width="1.71429" stroke-linecap="round" stroke-linejoin="round"/>
<path id="Vector_4" d="M12.3213 14.4639H14.4641V13.8832C14.4527 12.7984 14.0766 11.7491 13.3964 10.9041C12.7161 10.059 11.7714 9.46749 10.7141 9.22461" stroke="#BBBBBB" stroke-width="1.71429" stroke-linecap="round" stroke-linejoin="round"/>
</g>
</g>
<defs>
<clipPath id="clip0_421_6241">
<rect width="15" height="15" fill="white"/>
</clipPath>
</defs>
</svg>
