<svg width="17" height="17" viewBox="0 0 17 17" fill="none" xmlns="http://www.w3.org/2000/svg">
<g id="color-swatches--color-colors-design-painting-palette-sample-swatch">
<path id="Vector" d="M2.60707 1.53613H5.82136C6.10552 1.53613 6.37804 1.64902 6.57897 1.84995C6.7799 2.05088 6.89279 2.3234 6.89279 2.60756V12.7861C6.89279 13.4965 6.61058 14.1778 6.10825 14.6802C5.60592 15.1825 4.92462 15.4647 4.21422 15.4647C3.86246 15.4647 3.51415 15.3954 3.18917 15.2608C2.86419 15.1262 2.56891 14.9289 2.32018 14.6802C1.81785 14.1778 1.53564 13.4965 1.53564 12.7861V2.60756C1.53564 2.3234 1.64853 2.05088 1.84946 1.84995C2.05039 1.64902 2.32291 1.53613 2.60707 1.53613Z" stroke="white" stroke-width="1.71429" stroke-linecap="round" stroke-linejoin="round"/>
<path id="Vector_2" d="M6.89298 6.35741L10.643 2.58598C10.8437 2.38642 11.1153 2.27441 11.3983 2.27441C11.6814 2.27441 11.953 2.38642 12.1537 2.58598L14.4144 4.85741C14.614 5.05815 14.726 5.32971 14.726 5.61276C14.726 5.89582 14.614 6.16738 14.4144 6.36812L6.11084 14.6824" stroke="white" stroke-width="1.71429" stroke-linecap="round" stroke-linejoin="round"/>
<path id="Vector_3" d="M10.6429 10.1074H14.3929C14.6771 10.1074 14.9496 10.2203 15.1505 10.4212C15.3515 10.6222 15.4644 10.8947 15.4644 11.1789V14.3931C15.4644 14.6773 15.3515 14.9498 15.1505 15.1508C14.9496 15.3517 14.6771 15.4646 14.3929 15.4646H4.21436" stroke="white" stroke-width="1.71429" stroke-linecap="round" stroke-linejoin="round"/>
<path id="Vector_4" d="M1.53564 5.82227H6.89279" stroke="white" stroke-width="1.71429" stroke-linecap="round" stroke-linejoin="round"/>
<path id="Vector_5" d="M1.53564 10.1074H6.89279" stroke="white" stroke-width="1.71429" stroke-linecap="round" stroke-linejoin="round"/>
</g>
</svg>
