<svg width="17" height="17" viewBox="0 0 17 17" fill="none" xmlns="http://www.w3.org/2000/svg">
<g id="color-swatches--color-colors-design-painting-palette-sample-swatch">
<path id="Vector" d="M2.60707 1.53564H5.82136C6.10552 1.53564 6.37804 1.64853 6.57897 1.84946C6.7799 2.05039 6.89279 2.32291 6.89279 2.60707V12.7856C6.89279 13.496 6.61058 14.1774 6.10825 14.6797C5.60592 15.182 4.92462 15.4642 4.21422 15.4642C3.86246 15.4642 3.51415 15.3949 3.18917 15.2603C2.86419 15.1257 2.56891 14.9284 2.32018 14.6797C1.81785 14.1774 1.53564 13.496 1.53564 12.7856V2.60707C1.53564 2.32291 1.64853 2.05039 1.84946 1.84946C2.05039 1.64853 2.32291 1.53564 2.60707 1.53564Z" stroke="#BBBBBB" stroke-width="1.71429" stroke-linecap="round" stroke-linejoin="round"/>
<path id="Vector_2" d="M6.89298 6.35716L10.643 2.58573C10.8437 2.38618 11.1153 2.27417 11.3983 2.27417C11.6814 2.27417 11.953 2.38618 12.1537 2.58573L14.4144 4.85716C14.614 5.05791 14.726 5.32946 14.726 5.61252C14.726 5.89558 14.614 6.16713 14.4144 6.36788L6.11084 14.6822" stroke="#BBBBBB" stroke-width="1.71429" stroke-linecap="round" stroke-linejoin="round"/>
<path id="Vector_3" d="M10.6429 10.1072H14.3929C14.6771 10.1072 14.9496 10.2201 15.1505 10.421C15.3515 10.6219 15.4644 10.8944 15.4644 11.1786V14.3929C15.4644 14.6771 15.3515 14.9496 15.1505 15.1505C14.9496 15.3514 14.6771 15.4643 14.3929 15.4643H4.21436" stroke="#BBBBBB" stroke-width="1.71429" stroke-linecap="round" stroke-linejoin="round"/>
<path id="Vector_4" d="M1.53564 5.82129H6.89279" stroke="#BBBBBB" stroke-width="1.71429" stroke-linecap="round" stroke-linejoin="round"/>
<path id="Vector_5" d="M1.53564 10.1072H6.89279" stroke="#BBBBBB" stroke-width="1.71429" stroke-linecap="round" stroke-linejoin="round"/>
</g>
</svg>
