<svg width="20" height="20" viewBox="0 0 20 20" fill="none" xmlns="http://www.w3.org/2000/svg">
<g id="Ai Settings Spark" clip-path="url(#clip0_636_9257)">
<g id="ai-settings-spark--cog-gear-settings-machine-artificial-intelligence">
<path id="Vector" d="M8.457 3.67139H7.47557C7.23415 3.67199 6.99854 3.74557 6.79968 3.88247C6.60082 4.01938 6.44801 4.21321 6.36129 4.43853L5.847 5.7671L4.07557 6.77139L2.66415 6.5571C2.42902 6.52509 2.18968 6.56368 1.97653 6.66796C1.76338 6.77225 1.58603 6.93753 1.467 7.14282L0.988432 7.98139C0.866015 8.18995 0.809637 8.43071 0.826722 8.67194C0.843808 8.91318 0.933555 9.14358 1.08415 9.33282L1.98129 10.4471V12.4571L1.10843 13.5714C0.957841 13.7606 0.868094 13.991 0.851008 14.2323C0.833923 14.4735 0.890301 14.7142 1.01272 14.9228L1.49129 15.76C1.61012 15.9655 1.78738 16.1311 2.00055 16.2356C2.21372 16.3402 2.45316 16.379 2.68843 16.3471L4.09986 16.1328L5.847 17.1371L6.36129 18.4657C6.44823 18.6907 6.60115 18.8843 6.79999 19.0209C6.99883 19.1575 7.23431 19.2309 7.47557 19.2314H8.48129C8.72231 19.2306 8.95748 19.1571 9.15603 19.0205C9.35459 18.8839 9.50729 18.6905 9.59415 18.4657L10.1084 17.1371L11.8556 16.1314L13.2684 16.3471C13.5036 16.3791 13.7429 16.3405 13.956 16.2362C14.1692 16.132 14.3465 15.9667 14.4656 15.7614L14.9441 14.9228C15.0669 14.7141 15.1234 14.4731 15.1063 14.2315C15.0893 13.99 14.9993 13.7593 14.8484 13.57L13.9499 12.4571V11.1614M5.57272 11.4514C5.56492 11.7706 5.62106 12.0882 5.73784 12.3854C5.85463 12.6827 6.02969 12.9535 6.25272 13.1821C6.47576 13.4106 6.74226 13.5923 7.03654 13.7163C7.33083 13.8403 7.64694 13.9042 7.96629 13.9042C8.28563 13.9042 8.60175 13.8403 8.89603 13.7163C9.19032 13.5923 9.45682 13.4106 9.67985 13.1821C9.90289 12.9535 10.078 12.6827 10.1947 12.3854C10.3115 12.0882 10.3677 11.7706 10.3599 11.4514C10.3446 10.8267 10.0857 10.2327 9.6385 9.7963C9.19128 9.35987 8.59116 9.11558 7.96629 9.11558C7.34141 9.11558 6.74129 9.35987 6.29408 9.7963C5.84686 10.2327 5.58798 10.8267 5.57272 11.4514Z" stroke="#7F7F7F" stroke-width="1.71429" stroke-linecap="round" stroke-linejoin="round"/>
<path id="Vector 2136" d="M11.5715 5.05982C11.1344 4.98411 11.1344 4.35411 11.5715 4.27839C12.3491 4.14351 13.0688 3.77996 13.6387 3.23416C14.2087 2.68836 14.6031 1.98508 14.7715 1.21411L14.7972 1.09268C14.8929 0.659819 15.5101 0.656962 15.6087 1.08982L15.6415 1.22982C15.8163 1.99673 16.2138 2.69488 16.7842 3.23653C17.3546 3.77818 18.0723 4.13916 18.8472 4.27411C19.2887 4.35125 19.2887 4.98411 18.8472 5.05982C18.0723 5.19477 17.3546 5.55575 16.7842 6.0974C16.2138 6.63904 15.8163 7.33719 15.6415 8.10411L15.6087 8.24553C15.5101 8.67839 14.8929 8.67411 14.7972 8.24125L14.7715 8.12125C14.603 7.35093 14.209 6.64823 13.6396 6.10274C13.0702 5.55726 12.3512 5.19369 11.5744 5.05839L11.5715 5.05982Z" stroke="#7F7F7F" stroke-width="1.71429" stroke-linecap="round" stroke-linejoin="round"/>
</g>
</g>
<defs>
<clipPath id="clip0_636_9257">
<rect width="20" height="20" fill="white"/>
</clipPath>
</defs>
</svg>
