<svg width="35" height="35" viewBox="0 0 35 35" fill="none" xmlns="http://www.w3.org/2000/svg">
<g clip-path="url(#clip0_22_8910)">
<path d="M3.75 5C3.08696 5 2.45107 5.26339 1.98223 5.73223C1.51339 6.20107 1.25 6.83696 1.25 7.5V31.25C1.25 31.913 1.51339 32.5489 1.98223 33.0178C2.45107 33.4866 3.08696 33.75 3.75 33.75H31.25C31.913 33.75 32.5489 33.4866 33.0178 33.0178C33.4866 32.5489 33.75 31.913 33.75 31.25V7.5C33.75 6.83696 33.4866 6.20107 33.0178 5.73223C32.5489 5.26339 31.913 5 31.25 5H26.25" stroke="#9B9B9B" stroke-width="1.71429" stroke-linecap="round" stroke-linejoin="round"/>
<path d="M1.25 13.75H33.75" stroke="#9B9B9B" stroke-width="1.71429" stroke-linecap="round" stroke-linejoin="round"/>
<path d="M8.75 1.25V8.75" stroke="#9B9B9B" stroke-width="1.71429" stroke-linecap="round" stroke-linejoin="round"/>
<path d="M26.25 1.25V8.75" stroke="#9B9B9B" stroke-width="1.71429" stroke-linecap="round" stroke-linejoin="round"/>
<path d="M8.75 5H21.25" stroke="#9B9B9B" stroke-width="1.71429" stroke-linecap="round" stroke-linejoin="round"/>
</g>
<defs>
<clipPath id="clip0_22_8910">
<rect width="35" height="35" fill="white"/>
</clipPath>
</defs>
</svg>
